<?xml version="1.0" encoding="utf-8"?>
<!-- Generator: Adobe Illustrator 23.0.1, SVG Export Plug-In . SVG Version: 6.00 Build 0)  -->
<svg version="1.1" id="Layer_1" xmlns="http://www.w3.org/2000/svg" xmlns:xlink="http://www.w3.org/1999/xlink" x="0px" y="0px"
	 width="73.4px" height="69.4px" viewBox="0 0 73.4 69.4" style="enable-background:new 0 0 73.4 69.4;" xml:space="preserve">
<style type="text/css">
	.st0{fill:#006DAD;}
</style>
<g id="XMLID_1400_">
	<g>
		<g>
			<path class="st0" d="M65.3,25L62.4,9.9c-0.1-0.8-0.8-1.3-1.6-1.3H31.7c-0.8,0-1.4,0.5-1.6,1.3l-2.4,12.9h3.2l2.1-11h16.1
				c-0.2,0.4-0.3,0.9-0.3,1.3c0,1.8,1.4,3.2,3.2,3.2s3.2-1.4,3.2-3.2c0-0.5-0.1-0.9-0.3-1.3h4.5l2.3,12c-0.4,0-0.5,0-1.9,0V21
				c0-2-1.6-3.6-3.7-3.6c-0.9,0-7.4,0-8.3,0c-2,0-3.6,1.6-3.7,3.6v1.9c0.7,0.1,1.2,0.4,1.7,0.9c0.8,0.6,1.3,1.5,1.5,2.5L50,40.5
				c0.1,0.1,0.3,0.3,0.4,0.4h6v3.3c0,2.1,1.7,3.8,3.8,3.8s3.8-1.7,3.8-3.8v-3.3h1.2c1.4,0,2.6-1.2,2.6-2.6v-7.6
				C68.2,28.3,67.1,26.3,65.3,25z M60.7,36.4c-2,0-3.6-1.6-3.6-3.6l0,0c0-2,1.6-3.6,3.6-3.6s3.6,1.6,3.6,3.6
				C64.3,34.8,62.7,36.4,60.7,36.4z"/>
			<path class="st0" d="M47.8,41.8c-0.1-0.5-2.8-14.5-2.9-15.1c-0.1-0.8-0.8-1.3-1.6-1.3H14.2c-0.8,0-1.4,0.5-1.6,1.3L9.7,41.8
				c-1.9,1.4-2.9,3.5-2.9,5.7V55c0,1.4,1.2,2.6,2.6,2.6h1.2c0,1.4,0,2,0,3.3c0,2.1,1.7,3.8,3.8,3.8c2.1,0,3.8-1.7,3.8-3.8
				c0-1.4,0-2,0-3.3H39c0,1.4,0,2,0,3.3c0,2.1,1.7,3.8,3.8,3.8s3.8-1.7,3.8-3.8c0-1.4,0-2,0-3.3h1.2c1.4,0,2.6-1.2,2.6-2.6v-7.5
				C50.7,45.3,49.7,43.2,47.8,41.8z M14.6,53.2c-2,0-3.6-1.6-3.6-3.6s1.6-3.6,3.6-3.6c2,0,3.6,1.6,3.6,3.6l0,0
				C18.2,51.6,16.6,53.2,14.6,53.2z M38.8,34.1c-0.9,0-7.4,0-8.3,0c-2,0-3.6,1.6-3.7,3.6v2.8c-14.1,0-13,0-13.5,0l2.3-12h16.2
				c-0.2,0.4-0.3,0.9-0.3,1.3c0,1.8,1.4,3.2,3.2,3.2s3.2-1.4,3.2-3.2c0-0.5-0.1-0.9-0.3-1.3h4.5l2.3,12c-0.4,0-0.5,0-1.9,0v-2.8
				C42.5,35.8,40.8,34.1,38.8,34.1z M43.2,53.2c-2,0-3.6-1.6-3.6-3.6l0,0c0-2,1.6-3.6,3.6-3.6s3.6,1.6,3.6,3.6
				C46.8,51.6,45.2,53.2,43.2,53.2z"/>
		</g>
	</g>
</g>
</svg>
